<?xml version="1.0" encoding="utf-8"?>
<!-- Generator: Adobe Illustrator 19.1.0, SVG Export Plug-In . SVG Version: 6.00 Build 0)  -->
<svg version="1.1" id="Calque_1" xmlns="http://www.w3.org/2000/svg" xmlns:xlink="http://www.w3.org/1999/xlink" x="0px" y="0px"
	 viewBox="0 0 400 400" style="enable-background:new 0 0 400 400;" xml:space="preserve">
<path d="M367.2,165.7c-4.7-5-8.4-10.9-10.6-17.3c-0.5-1.4-2.2-10.2-2.6-11.5c-6.5-19.7-16.8-31.6-19.3-35.2
	c-9.1-12.8-33-37.7-37.3-41.7c-15.1-13.6-23.5-17.6-43.2-24.6c-6-2.1-14.5-3-20.1-3.5c-13.1-1-29.7,0.4-43.7,2.4
	c-48.9,7.1-81.4,15.3-109,27.6C71.2,66.5,55,76.8,44.9,87c-17.9,18.2-28.8,46.3-33.4,57.4c-6,14.7-7.9,30.8-9.2,47
	c-1.1,14.2,2.7,43.9,6.5,55.2c4.1,12.2,8.9,25.3,16.1,36.3c13.1,20,24.1,31,43.6,44.4c18.8,12.9,38.8,19.5,60.2,19.7
	c11.4,0.1,32.9-2.3,43.9-1.2c11.3,1.2,20.6,5.4,25.1,8.1c10.8,6.7,36.6,14.8,57.4,15.9c26.5,1.3,53.3-4.4,72.1-15.2
	c19.3-11.1,39.6-28.3,50.9-46.3c12.5-19.9,17.8-39.8,20.5-67.1C402.1,204.2,377.8,176.8,367.2,165.7z"/>
</svg>
