<?xml version="1.0" encoding="utf-8"?>
<!-- Generator: Adobe Illustrator 19.1.0, SVG Export Plug-In . SVG Version: 6.00 Build 0)  -->
<svg version="1.1" id="Calque_1" xmlns="http://www.w3.org/2000/svg" xmlns:xlink="http://www.w3.org/1999/xlink" x="0px" y="0px"
	 viewBox="0 0 400 400" style="enable-background:new 0 0 400 400;" xml:space="preserve">
<path d="M364.3,207.5c-0.7-4.2-2-8.3-3.3-12.4c-2.3-7.1-5.9-15-9.3-21.7c-1-2.1-2.2-4.1-3.5-6l0,0c-3.2-4.8-5.3-10.2-6.2-15.8
	c-0.2-1.4-0.5-2.8-0.7-4.1c-0.6-3.5-2-9-3.2-12.3c-2.6-7.3-5.8-14.4-9.2-21.3c-1.6-3.2-4.7-8.1-6.7-11.1
	c-6.2-9.3-13.4-17.8-20.5-26.2c-3.8-4.5-7.9-8.8-12.3-12.7c-15.1-13.6-28.8-21.3-48.6-28.2c-6-2.1-10.3-2.7-17-3.6
	c-0.6-0.1-3.4-0.5-5.9-0.7c-8.5-0.9-14.2-0.5-22.6,0.7c-1.2,0.2-3.7,0.4-4.9,0.6c-4.9,0.5-8.5,1.1-13.4,2c-19,4-37.2,11.3-54.6,19.6
	C107.1,61.4,92.4,71.8,80.7,84c-2.2,2.3-4.2,4.7-6.1,7.1c-6,7.5-12.2,15-17.5,23c-6.9,10.4-11.3,23.4-15.9,34.5
	c-6,14.7-8.2,31.3-9.2,47c-0.4,6.3-0.1,12.6,0.4,18.9c1,11.3,2.3,25,6.1,36.3c4.1,12.2,8.9,25.3,16.1,36.3
	c13.1,20,24.1,31,43.6,44.4c18.8,12.9,39,16.8,60.2,19.7c3.4,0.5,7.3,2,9.4,3c5.7,2.7,10.3,4.8,16.2,7.1c5.3,2,10.9,3.5,16.5,4.4
	c9.4,1.6,22.5,4.1,33,3.5c5.4-0.3,11.1-1.3,16.3-2c5.3-0.7,11.5-1.2,17-2.4c10.2-2.2,20.2-6.7,29.4-11.3c4.3-2.1,8.4-4.5,12.2-7.3
	c5.7-4.1,11.6-8.4,16.9-13.1c2.9-2.6,5.5-5.1,7.9-7.8c5.4-6.1,10.7-13.1,15.1-19.7c0.7-1.1,2.1-3.4,2.7-4.5
	c2.5-4.7,4.2-8.9,6.2-13.6c2-4.7,4.1-9.9,5.6-15.1c0.4-1.4,1.5-5.7,1.7-7.1c1.7-8.9,2.7-16.2,3.4-25.3
	C368.8,229.4,365.8,216.8,364.3,207.5z"/>
</svg>
