<?xml version="1.0" encoding="utf-8"?>
<!-- Generator: Adobe Illustrator 19.1.0, SVG Export Plug-In . SVG Version: 6.00 Build 0)  -->
<svg version="1.1" id="Calque_1" xmlns="http://www.w3.org/2000/svg" xmlns:xlink="http://www.w3.org/1999/xlink" x="0px" y="0px"
	 viewBox="0 0 400 400" style="enable-background:new 0 0 400 400;" xml:space="preserve">
<path d="M227.7,352.5c4.5-4.3,9.7-7.7,15.6-9.7c1.3-0.4,7.8-1.7,13.7-3.5c17.8-5.4,32.8-16.4,36-18.7c11.4-8.3,32.2-29.4,37.3-35.3
	c12.1-13.9,17-24.1,21-37.1c1.7-5.6,3.7-15.9,4.1-21c0.9-12.1-0.8-39.5-2.2-52.4c-4.7-44.8-6.1-59.3-18.4-84
	c-6.9-13.7-19.1-28.4-28.8-37.1c-24.1-21.7-46.6-22.9-59.3-27.5c-13.4-4.9-32.4-8.9-46.9-7.6c-22.1,2-33,19.7-51.3,29.1
	c-10.3,5.3-20.2,6.8-30,13.4c-18,12.1-32.3,23.4-39.8,40c-12.8,28-12.1,61.4-12.7,72.8c-0.5,10.4-4.8,18.9-7.3,23
	c-6,9.9-13.3,33.6-14.2,52.7c-1.2,24.3,3.9,48.9,13.6,66.1c10,17.7,25.4,36.3,41.5,46.7c17.8,11.5,35.7,16.3,60.2,18.8
	C193.2,384.6,217.7,362.2,227.7,352.5z"/>
</svg>
